P_AM2_Trial_4_grf.mot						
version=1						
nRows=84						
nColumns=7						
inDegrees=yes						
endheader						
time	ground_force_vx	ground_force_vy	ground_force_vz	ground_force_px	ground_force_py	ground_force_pz
0	-0.092505	1.8794	-0.52259	-0.054458	0.055382	0.088166
0.008	-0.11586	1.8488	-0.48973	-0.054084	0.055384	0.088437
0.017	-0.13903	1.8185	-0.45727	-0.053701	0.055387	0.088717
0.025	-0.16191	1.7885	-0.42537	-0.05331	0.055389	0.089006
0.033	-0.1844	1.759	-0.39417	-0.052912	0.055391	0.089302
0.042	-0.2064	1.7302	-0.3638	-0.052511	0.055394	0.089605
0.05	-0.22781	1.7021	-0.33439	-0.052106	0.055396	0.089913
0.058	-0.24856	1.6749	-0.30607	-0.051702	0.055398	0.090225
0.067	-0.26856	1.6487	-0.27893	-0.0513	0.055401	0.090539
0.075	-0.28773	1.6236	-0.25307	-0.050903	0.055403	0.090853
0.083	-0.30601	1.5996	-0.22858	-0.050512	0.055406	0.091166
0.092	-0.32334	1.5769	-0.20553	-0.050131	0.055408	0.091475
0.1	-0.33968	1.5555	-0.18396	-0.049761	0.05541	0.091779
0.108	-0.35497	1.5355	-0.16393	-0.049406	0.055413	0.092077
0.117	-0.36919	1.5168	-0.14546	-0.049068	0.055415	0.092365
0.125	-0.38231	1.4996	-0.12857	-0.048747	0.055417	0.092642
0.133	-0.39432	1.4837	-0.11326	-0.048447	0.055419	0.092908
0.142	-0.40521	1.4693	-0.099531	-0.048169	0.055421	0.093159
0.15	-0.41498	1.4562	-0.08735	-0.047914	0.055422	0.093395
0.158	-0.42364	1.4445	-0.076692	-0.047683	0.055424	0.093615
0.167	-0.4312	1.4341	-0.067512	-0.047477	0.055425	0.093818
0.175	-0.43769	1.4249	-0.059762	-0.047295	0.055427	0.094002
0.183	-0.44312	1.4169	-0.05338	-0.047138	0.055428	0.094169
0.192	-0.44754	1.41	-0.048301	-0.047006	0.055429	0.094316
0.2	-0.45099	1.4041	-0.044451	-0.046896	0.05543	0.094445
0.208	-0.4535	1.3992	-0.041752	-0.04681	0.05543	0.094556
0.217	-0.45512	1.395	-0.040122	-0.046744	0.055431	0.09465
0.225	-0.4559	1.3916	-0.039474	-0.046699	0.055432	0.094726
0.233	-0.45589	1.3888	-0.039722	-0.046671	0.055432	0.094787
0.242	-0.45515	1.3864	-0.040777	-0.04666	0.055432	0.094832
0.25	-0.45374	1.3845	-0.042549	-0.046663	0.055432	0.094863
0.258	-0.45171	1.3828	-0.044953	-0.046679	0.055432	0.094882
0.267	-0.44911	1.3813	-0.047901	-0.046705	0.055432	0.094889
0.275	-0.44601	1.3799	-0.051312	-0.046739	0.055432	0.094886
0.283	-0.44246	1.3784	-0.055104	-0.046781	0.055432	0.094874
0.292	-0.43853	1.3768	-0.059204	-0.046827	0.055432	0.094855
0.3	-0.43426	1.3749	-0.06354	-0.046876	0.055432	0.09483
0.308	-0.42971	1.3728	-0.068048	-0.046927	0.055431	0.0948
0.317	-0.42494	1.3702	-0.072668	-0.046978	0.055431	0.094766
0.325	-0.41999	1.3672	-0.077347	-0.047027	0.055431	0.09473
0.333	-0.41491	1.3637	-0.08204	-0.047074	0.055431	0.094693
0.342	-0.40977	1.3597	-0.086705	-0.047117	0.05543	0.094656
0.35	-0.40459	1.355	-0.091311	-0.047155	0.05543	0.09462
0.358	-0.39942	1.3498	-0.09583	-0.047186	0.05543	0.094586
0.367	-0.39432	1.3439	-0.10024	-0.047212	0.05543	0.094555
0.375	-0.3893	1.3374	-0.10454	-0.047229	0.055429	0.094529
0.383	-0.38442	1.3303	-0.1087	-0.047239	0.055429	0.094507
0.392	-0.37971	1.3227	-0.11274	-0.04724	0.055429	0.094492
0.4	-0.3752	1.3145	-0.11664	-0.047233	0.055429	0.094482
0.408	-0.37093	1.3058	-0.12043	-0.047217	0.055429	0.094481
0.417	-0.36692	1.2968	-0.12411	-0.047192	0.055429	0.094486
0.425	-0.3632	1.2873	-0.1277	-0.047158	0.055429	0.094501
0.433	-0.35981	1.2777	-0.13121	-0.047115	0.05543	0.094524
0.442	-0.35676	1.2679	-0.13466	-0.047064	0.05543	0.094556
0.45	-0.35408	1.2581	-0.13807	-0.047005	0.05543	0.094597
0.458	-0.35179	1.2484	-0.14146	-0.04694	0.055431	0.094648
0.467	-0.34992	1.2389	-0.14484	-0.046868	0.055431	0.094707
0.475	-0.34848	1.2298	-0.14823	-0.046792	0.055432	0.094775
0.483	-0.3475	1.2213	-0.15165	-0.046712	0.055432	0.094851
0.492	-0.34699	1.2134	-0.15511	-0.046629	0.055433	0.094935
0.5	-0.34697	1.2064	-0.1586	-0.046546	0.055433	0.095024
0.508	-0.34746	1.2004	-0.16214	-0.046464	0.055434	0.095118
0.517	-0.34847	1.1956	-0.16571	-0.046385	0.055435	0.095215
0.525	-0.35002	1.1922	-0.1693	-0.046311	0.055435	0.095313
0.533	-0.35212	1.1903	-0.1729	-0.046244	0.055436	0.09541
0.542	-0.35478	1.1902	-0.17648	-0.046187	0.055436	0.095504
0.55	-0.35801	1.1919	-0.18	-0.04614	0.055437	0.095592
0.558	-0.36182	1.1957	-0.18343	-0.046108	0.055437	0.09567
0.567	-0.36623	1.2018	-0.18672	-0.04609	0.055438	0.095738
0.575	-0.37122	1.2102	-0.18981	-0.04609	0.055438	0.095791
0.583	-0.37682	1.2212	-0.19265	-0.046107	0.055438	0.095827
0.592	-0.38301	1.2348	-0.19514	-0.046144	0.055438	0.095844
0.6	-0.38979	1.2512	-0.19723	-0.0462	0.055438	0.095839
0.608	-0.39718	1.2706	-0.19883	-0.046276	0.055438	0.095811
0.617	-0.40514	1.293	-0.19983	-0.046373	0.055437	0.095759
0.625	-0.41369	1.3185	-0.20016	-0.046488	0.055437	0.095681
0.633	-0.4228	1.3472	-0.1997	-0.046622	0.055436	0.095577
0.642	-0.43247	1.3792	-0.19836	-0.046772	0.055435	0.095447
0.65	-0.44267	1.4143	-0.19603	-0.046939	0.055434	0.095292
0.658	-0.45338	1.4528	-0.19259	-0.047118	0.055432	0.095112
0.667	-0.46459	1.4946	-0.18795	-0.04731	0.055431	0.094908
0.675	-0.47626	1.5396	-0.182	-0.047512	0.055429	0.094683
0.683	-0.48836	1.5878	-0.17463	-0.047721	0.055428	0.094437
0.692	-0.50087	1.6392	-0.16574	-0.047937	0.055426	0.094173
